<svg xmlns="http://www.w3.org/2000/svg" viewBox="0 0 63.75 57.65"><defs><style>.cls-1{fill:#ffffff;}</style></defs><g id="Layer_2" data-name="Layer 2"><g id="Layer_1-2" data-name="Layer 1"><path class="cls-1" d="M61.16,6.8A14.45,14.45,0,0,0,46.39.19c-5.93.89-10.75,4.72-14.52,9.16C28.09,4.91,23.27,1.08,17.34.19A14.43,14.43,0,0,0,2.57,6.8C-.61,12-.63,18.24,1.37,23.86,3.67,30.26,8.27,35.4,13,40.05c6,5.82,12.08,11.47,18.13,17.21.55.52.87.52,1.42,0,6-5.72,12.15-11.39,18.12-17.21,4.78-4.67,9.38-9.79,11.68-16.19C64.39,18.24,64.36,12,61.16,6.8Z"/></g></g></svg>