<svg xmlns="http://www.w3.org/2000/svg" viewBox="0 0 63.75 57.65"><defs><style>.cls-1{fill:#ffffff;}</style></defs><g id="Layer_2" data-name="Layer 2"><g id="Layer_1-2" data-name="Layer 1"><path class="cls-1" d="M48.78,5.5a8.74,8.74,0,0,1,7.64,4.17c2.83,4.57,1.65,9.69.7,12.31C55.17,27.45,51,32,46.81,36.1s-8.3,8-12.39,11.81c-.85.8-1.7,1.63-2.58,2.42l-2.57-2.42C25.17,44.06,21,40.07,16.88,36.1S8.51,27.45,6.56,22c-.95-2.62-2.1-7.74.7-12.31A8.76,8.76,0,0,1,14.91,5.5a12.15,12.15,0,0,1,1.59.12c3.8.58,7.55,3.05,11.17,7.29l4.2,4.95,4.19-4.95c3.63-4.27,7.37-6.71,11.17-7.29a11.18,11.18,0,0,1,1.55-.12m0-5.5a16.41,16.41,0,0,0-2.42.17c-5.92.9-10.75,4.73-14.52,9.17C28.07,4.9,23.25,1.07,17.33.17A16.7,16.7,0,0,0,14.91,0,14.26,14.26,0,0,0,2.57,6.79C-.61,12-.63,18.24,1.37,23.86,3.67,30.25,8.26,35.4,13,40c6,5.82,12.07,11.47,18.11,17.21a1.06,1.06,0,0,0,.73.4c.22,0,.42-.12.72-.4,6-5.72,12.14-11.39,18.11-17.21,4.77-4.67,9.37-9.79,11.67-16.18,2-5.62,2-11.87-1.2-17.07A14.43,14.43,0,0,0,48.78,0Z"/></g></g></svg>